<svg viewBox="0 0 200 200" xmlns="http://www.w3.org/2000/svg">
  <defs>
    <linearGradient id="grad1" x1="0%" y1="0%" x2="100%" y2="100%">
      <stop offset="0%" style="stop-color:#6366f1;stop-opacity:1" />
      <stop offset="100%" style="stop-color:#8b5cf6;stop-opacity:1" />
    </linearGradient>
  </defs>
  
  <!-- Background circle -->
  <circle cx="100" cy="100" r="90" fill="url(#grad1)"/>
  
  <!-- GitHub cat silhouette (larger) -->
  <path d="M100 35c-27 0-50 22-50 50 0 22.1 14.3 40.8 34.2 47.4 2.5.5 3.4-1.1 3.4-2.4 0-1.2 0-5-.1-9-13.9 3-16.8-5.8-16.8-5.8-2.3-5.8-5.6-7.3-5.6-7.3-4.6-3.1.3-3 .3-3 5 .3 7.6 5.1 7.6 5.1 4.5 7.7 11.7 5.5 14.6 4.2.4-3.3 1.7-5.5 3.1-6.7-11.1-1.3-22.8-5.6-22.8-24.8 0-5.5 2-10 5.1-13.5-.5-1.3-2.2-6.4.5-13.4 0 0 4.2-1.3 13.7 5.1 4-1.1 8.3-1.7 12.4-1.7 4.2 0 8.5.6 12.4 1.7 9.5-6.4 13.7-5.1 13.7-5.1 2.7 7 1 12.1.5 13.4 3.2 3.4 5.1 8 5.1 13.5 0 19.3-11.7 23.5-22.8 24.7 1.8 1.6 3.4 4.6 3.4 9.3 0 6.7 0 12.1 0 13.7 0 1.3.9 2.9 3.4 2.4C135.7 125.8 150 107.1 150 85c0-28-22-50-50-50z" fill="white"/>
  
  <!-- Magnifying glass (on edge) -->
  <!-- <circle cx="160" cy="160" r="22" fill="none" stroke="white" stroke-width="6"/> -->
  <!-- <line x1="145" y1="145" x2="130" y2="130" stroke="white" stroke-width="6" stroke-linecap="round"/> -->
</svg>
